<svg xmlns="http://www.w3.org/2000/svg" viewBox="0 0 1024 1024" width="256" height="256" role="img" aria-label="right chevron silver runtime">
<defs>
  <linearGradient id="metal" x1="0" y1="0" x2="1" y2="1"><stop offset="0%" stop-color="#3f4142"/><stop offset="8%" stop-color="#8c8c86"/><stop offset="20%" stop-color="#eee6d6"/><stop offset="34%" stop-color="#696a67"/><stop offset="49%" stop-color="#b7b3a8"/><stop offset="62%" stop-color="#fff8e8"/><stop offset="78%" stop-color="#77756d"/><stop offset="91%" stop-color="#c8c0ae"/><stop offset="100%" stop-color="#45443f"/></linearGradient>
  <linearGradient id="edge" x1="0" y1="0" x2="0" y2="1">
    <stop offset="0" stop-color="#fff8ea"/><stop offset=".33" stop-color="#d7d0c0"/>
    <stop offset=".67" stop-color="#65625b"/><stop offset="1" stop-color="#fff8ea"/>
  </linearGradient>
  <linearGradient id="recess" x1="0" y1="0" x2="1" y2="1">
    <stop offset="0" stop-color="#171716"/><stop offset=".5" stop-color="#2a2926"/><stop offset="1" stop-color="#080807"/>
  </linearGradient>
  <filter id="depth" x="-30%" y="-30%" width="160%" height="160%">
    <feGaussianBlur in="SourceAlpha" stdDeviation="9" result="b"/>
    <feOffset dy="10" result="o"/><feColorMatrix in="o" type="matrix" values="0 0 0 0 0 0 0 0 0 0 0 0 0 0 0 0 0 0 .68 0" result="s"/>
    <feMerge><feMergeNode in="s"/><feMergeNode in="SourceGraphic"/></feMerge>
  </filter>
  <filter id="patina" x="-15%" y="-15%" width="130%" height="130%">
    <feTurbulence type="fractalNoise" baseFrequency=".025 .09" numOctaves="3" seed="29" result="noise"/>
    <feColorMatrix in="noise" type="saturate" values="0" result="mono"/>
    <feComponentTransfer in="mono" result="fade"><feFuncA type="table" tableValues="0 .14"/></feComponentTransfer>
    <feBlend in="SourceGraphic" in2="fade" mode="multiply"/>
  </filter>
  <filter id="ornGlow" x="-40%" y="-40%" width="180%" height="180%">
    <feGaussianBlur stdDeviation="2.2" result="g"/><feMerge><feMergeNode in="g"/><feMergeNode in="SourceGraphic"/></feMerge>
  </filter>
</defs>
<g transform="rotate(180 512 512)" filter="url(#depth)">
  <!-- massive cast body -->
  <path d="M704 154 L292 512 L704 870" fill="none" stroke="#0a0805" stroke-width="226" stroke-linecap="round" stroke-linejoin="round" opacity=".78"/>
  <path d="M704 154 L292 512 L704 870" fill="none" stroke="url(#metal)" stroke-width="206" stroke-linecap="round" stroke-linejoin="round" filter="url(#patina)"/>
  <!-- polished edge rails -->
  <path d="M704 154 L292 512 L704 870" fill="none" stroke="url(#edge)" stroke-width="174" stroke-linecap="round" stroke-linejoin="round" opacity=".92"/>
  <!-- oxidised inlay -->
  <path d="M704 154 L292 512 L704 870" fill="none" stroke="url(#recess)" stroke-width="142" stroke-linecap="round" stroke-linejoin="round"/>
  <path d="M704 154 L292 512 L704 870" fill="none" stroke="#d7d0c0" stroke-width="4" stroke-linecap="round" stroke-linejoin="round" opacity=".92"/>
  <!-- hand engraved filigree, upper arm -->
  <g fill="none" stroke="#d7d0c0" stroke-width="12" stroke-linecap="round" stroke-linejoin="round" filter="url(#ornGlow)">
    <path d="M651 210 C602 227 570 258 553 299 C536 339 493 360 445 383 C398 405 371 439 348 475"/>
    <path d="M622 232 C603 265 579 284 546 296 C565 306 582 322 590 343"/>
    <path d="M522 318 C501 337 477 350 449 359 C463 373 468 390 466 407"/>
    <path d="M414 401 C392 419 377 440 366 465 C386 459 403 462 418 473"/>
  </g>
  <g fill="#fff8ea" opacity=".92">
    <path d="M594 251 q-33 5-50 34 q31 3 50-34z"/><path d="M503 336 q-31 3-46 28 q28 4 46-28z"/>
    <path d="M402 419 q-28 4-42 27 q27 2 42-27z"/>
  </g>
  <!-- hand engraved filigree, lower arm -->
  <g fill="none" stroke="#d7d0c0" stroke-width="12" stroke-linecap="round" stroke-linejoin="round" filter="url(#ornGlow)">
    <path d="M651 814 C602 797 570 766 553 725 C536 685 493 664 445 641 C398 619 371 585 348 549"/>
    <path d="M622 792 C603 759 579 740 546 728 C565 718 582 702 590 681"/>
    <path d="M522 706 C501 687 477 674 449 665 C463 651 468 634 466 617"/>
    <path d="M414 623 C392 605 377 584 366 559 C386 565 403 562 418 551"/>
  </g>
  <g fill="#fff8ea" opacity=".92">
    <path d="M594 773 q-33-5-50-34 q31-3 50 34z"/><path d="M503 688 q-31-3-46-28 q28-4 46 28z"/>
    <path d="M402 605 q-28-4-42-27 q27-2 42 27z"/>
  </g>
  <!-- central jewellery accents -->
  <g fill="#d7d0c0" stroke="#fff8ea" stroke-width="3">
    <circle cx="370" cy="512" r="15"/><circle cx="468" cy="365" r="10"/><circle cx="468" cy="659" r="10"/>
    <path d="M566 270 l19 19 -19 19 -19-19z"/><path d="M566 716 l19 19 -19 19 -19-19z"/>
  </g>
  <!-- fine age marks -->
  <g stroke="#4f4d47" stroke-width="3" opacity=".36">
    <path d="M661 178l-22 12m38 3l-17 8m-337 298l-18 15m23 7l-15 12m344 298l-21 9m35-27l-17 11"/>
  </g>
  <path d="M704 154 L292 512 L704 870" fill="none" stroke="#d8cfbc" stroke-width="2.5" opacity=".65"/>
</g>
</svg>