<svg xmlns="http://www.w3.org/2000/svg" width="256" height="256" viewBox="0 0 2048 2048"><defs><radialGradient id="gold" cx="35%" cy="28%" r="75%"><stop offset="0" stop-color="#fff0aa"/><stop offset="0.18" stop-color="#e8bf59"/><stop offset="0.42" stop-color="#9d6b18"/><stop offset="0.68" stop-color="#d7a83d"/><stop offset="1" stop-color="#5f3b08"/></radialGradient><linearGradient id="brass" x1="0" y1="0" x2="1" y2="1"><stop offset="0" stop-color="#fff3be"/><stop offset="0.22" stop-color="#d8a94c"/><stop offset="0.47" stop-color="#81520f"/><stop offset="0.72" stop-color="#d5a543"/><stop offset="1" stop-color="#4b2d05"/></linearGradient><linearGradient id="steel" x1="0" y1="0" x2="1" y2="1"><stop offset="0" stop-color="#f5ead0"/><stop offset="0.35" stop-color="#c3a86f"/><stop offset="0.68" stop-color="#6e5223"/><stop offset="1" stop-color="#2f210c"/></linearGradient><filter id="shadow" x="-30%" y="-30%" width="160%" height="160%"><feDropShadow dx="0" dy="34" stdDeviation="34" flood-color="#000" flood-opacity="0.62"/><feDropShadow dx="0" dy="0" stdDeviation="20" flood-color="#d39b34" flood-opacity="0.20"/></filter></defs><g filter="url(#shadow)"><circle cx="920" cy="1110" r="570" fill="#07121a" stroke="url(#gold)" stroke-width="72"/><circle cx="920" cy="1110" r="455" fill="none" stroke="#b98a32" stroke-width="42" opacity="0.92"/><circle cx="920" cy="1110" r="326" fill="none" stroke="#e1bd67" stroke-width="36" opacity="0.88"/><circle cx="920" cy="1110" r="196" fill="#17110a" stroke="url(#brass)" stroke-width="34"/><circle cx="920" cy="1110" r="78" fill="url(#gold)" stroke="#fff0ae" stroke-width="16"/><circle cx="920" cy="1110" r="28" fill="#1d1205" opacity="0.9"/><path d="M426 829 A570 570 0 0 1 1202 590" fill="none" stroke="#fff5c9" stroke-width="16" stroke-linecap="round" opacity="0.22"/><path d="M563 1323 A455 455 0 0 0 1198 1462" fill="none" stroke="#1d1102" stroke-width="18" stroke-linecap="round" opacity="0.46"/><g transform="rotate(-43 920 1110)"><rect x="886" y="445" width="68" height="626" rx="34" fill="url(#steel)" stroke="#3a270d" stroke-width="18"/><path d="M920 1100 L853 989 L987 989 Z" fill="url(#brass)" stroke="#4f3309" stroke-width="18"/><path d="M920 445 L823 290 L900 311 L920 204 L940 311 L1017 290 Z" fill="url(#gold)" stroke="#50330a" stroke-width="18" stroke-linejoin="round"/><path d="M920 445 L920 1038" stroke="#fff1bb" stroke-width="10" opacity="0.32"/></g></g></svg>